<svg width="20" height="16" viewBox="0 0 20 16" fill="none" xmlns="http://www.w3.org/2000/svg">
<path d="M11.6684 1.33301H8.32675C5.17675 1.33301 3.60175 1.33301 2.62259 2.30967C1.94759 2.98134 1.73842 3.93551 1.67259 5.49051C1.66009 5.79884 1.65342 5.95384 1.71092 6.05634C1.76925 6.15884 1.99842 6.28801 2.45842 6.54467C2.71753 6.68913 2.93337 6.90016 3.08362 7.15595C3.23388 7.41174 3.3131 7.70302 3.3131 7.99967C3.3131 8.29633 3.23388 8.58761 3.08362 8.8434C2.93337 9.09919 2.71753 9.31022 2.45842 9.45467C1.99842 9.71217 1.76842 9.84051 1.71092 9.94301C1.65342 10.0455 1.66009 10.1997 1.67342 10.508C1.73842 12.0638 1.94842 13.018 2.62259 13.6897C3.60092 14.6663 5.17592 14.6663 8.32675 14.6663H11.6684C14.8184 14.6663 16.3934 14.6663 17.3726 13.6897C18.0476 13.018 18.2568 12.0638 18.3226 10.5088C18.3351 10.2005 18.3418 10.0455 18.2843 9.94301C18.2259 9.84051 17.9968 9.71217 17.5368 9.45467C17.2776 9.31022 17.0618 9.09919 16.9116 8.8434C16.7613 8.58761 16.6821 8.29633 16.6821 7.99967C16.6821 7.70302 16.7613 7.41174 16.9116 7.15595C17.0618 6.90016 17.2776 6.68913 17.5368 6.54467C17.9968 6.28801 18.2268 6.15884 18.2843 6.05634C18.3418 5.95384 18.3351 5.79967 18.3218 5.49051C18.2568 3.93551 18.0468 2.98217 17.3726 2.30967C16.3943 1.33301 14.8193 1.33301 11.6684 1.33301Z" stroke="white" stroke-width="1.5"/>
<path d="M7.5 10.5L12.5 5.5" stroke="white" stroke-width="1.5" stroke-linecap="round"/>
<path d="M12.9115 10.083C12.9115 10.304 12.8237 10.516 12.6674 10.6723C12.5111 10.8285 12.2991 10.9163 12.0781 10.9163C11.8571 10.9163 11.6452 10.8285 11.4889 10.6723C11.3326 10.516 11.2448 10.304 11.2448 10.083C11.2448 9.86199 11.3326 9.65003 11.4889 9.49375C11.6452 9.33747 11.8571 9.24967 12.0781 9.24967C12.2991 9.24967 12.5111 9.33747 12.6674 9.49375C12.8237 9.65003 12.9115 9.86199 12.9115 10.083ZM8.74479 5.91634C8.74479 6.13735 8.65699 6.34932 8.50071 6.5056C8.34443 6.66188 8.13247 6.74967 7.91146 6.74967C7.69044 6.74967 7.47848 6.66188 7.3222 6.5056C7.16592 6.34932 7.07812 6.13735 7.07812 5.91634C7.07812 5.69533 7.16592 5.48337 7.3222 5.32709C7.47848 5.17081 7.69044 5.08301 7.91146 5.08301C8.13247 5.08301 8.34443 5.17081 8.50071 5.32709C8.65699 5.48337 8.74479 5.69533 8.74479 5.91634Z" fill="white"/>
</svg>
